<svg width="19" height="20" viewBox="0 0 19 20" fill="none" xmlns="http://www.w3.org/2000/svg">
<path d="M18.7958 11.385L17.2125 5.68833C16.7484 4.01944 15.7398 2.55357 14.3469 1.52373C12.9541 0.493878 11.257 -0.0408439 9.52537 0.00455623C7.79375 0.0499563 6.12699 0.672873 4.79004 1.77429C3.45308 2.87571 2.52266 4.39242 2.14665 6.08333L0.920818 11.5958C0.785414 12.2049 0.788545 12.8367 0.929979 13.4444C1.07141 14.0522 1.34754 14.6204 1.73797 15.1071C2.1284 15.5939 2.62317 15.9867 3.18574 16.2566C3.74832 16.5266 4.36434 16.6667 4.98832 16.6667H5.91665C6.10791 17.6086 6.61893 18.4554 7.3631 19.0636C8.10728 19.6719 9.03885 20.0042 9.99998 20.0042C10.9611 20.0042 11.8927 19.6719 12.6369 19.0636C13.381 18.4554 13.8921 17.6086 14.0833 16.6667H14.7817C15.424 16.6667 16.0576 16.5182 16.6331 16.2329C17.2086 15.9475 17.7103 15.5329 18.099 15.0216C18.4877 14.5102 18.753 13.9159 18.874 13.285C18.995 12.6542 18.9685 12.0039 18.7966 11.385H18.7958ZM9.99998 18.3333C9.48477 18.3312 8.98279 18.1699 8.56274 17.8716C8.14268 17.5733 7.82505 17.1524 7.65332 16.6667H12.3467C12.1749 17.1524 11.8573 17.5733 11.4372 17.8716C11.0172 18.1699 10.5152 18.3312 9.99998 18.3333ZM16.7717 14.0125C16.5394 14.3206 16.2386 14.5702 15.893 14.7416C15.5474 14.9131 15.1666 15.0015 14.7808 15H4.98832C4.61397 14.9999 4.24442 14.9158 3.90694 14.7538C3.56945 14.5918 3.27266 14.3561 3.03845 14.0641C2.80425 13.772 2.63862 13.4311 2.55379 13.0665C2.46895 12.7019 2.46709 12.3229 2.54832 11.9575L3.77332 6.44417C4.06861 5.11601 4.79941 3.92467 5.84953 3.05954C6.89966 2.19441 8.20884 1.70514 9.56896 1.66951C10.9291 1.63388 12.2621 2.05393 13.3561 2.86289C14.4501 3.67185 15.2422 4.82329 15.6067 6.13417L17.19 11.8308C17.2946 12.202 17.3113 12.5924 17.2386 12.9711C17.166 13.3498 17.0061 13.7064 16.7717 14.0125Z" fill="#FFCE33"/>
</svg>
