<svg width="10" height="6" viewBox="0 0 10 6" fill="none" xmlns="http://www.w3.org/2000/svg">
<path d="M8.93716 1.05228L8.76145 1.23012L8.93716 1.05228C8.7107 0.828527 8.3464 0.828527 8.11994 1.05228L5.06143 4.07425C5.0449 4.08933 5.02266 4.09816 4.999 4.09816C4.97534 4.09816 4.9531 4.08933 4.93657 4.07426L1.88006 1.05395C1.65361 0.830184 1.2893 0.830176 1.06284 1.05393C0.832506 1.28151 0.832496 1.65341 1.06281 1.881L4.1161 4.89812L4.11605 4.89817L4.12043 4.9023C4.35777 5.1258 4.67247 5.25 4.99917 5.25C5.32586 5.25 5.64056 5.1258 5.8779 4.9023L5.87795 4.90235L5.88223 4.89812L8.93718 1.87936C9.1675 1.65177 9.16749 1.27986 8.93716 1.05228Z" fill="#FFCE33" stroke="#1E0E62" stroke-width="0.5"/>
</svg>
