<svg width="20" height="20" viewBox="0 0 20 20" fill="none" xmlns="http://www.w3.org/2000/svg">
<g clip-path="url(#clip0_79_5)">
<path d="M19.7558 18.5774L14.7817 13.6033C16.1372 11.9454 16.8036 9.83002 16.6432 7.69457C16.4827 5.55913 15.5077 3.56705 13.9196 2.13037C12.3316 0.693699 10.2522 -0.0776494 8.11136 -0.0241229C5.97057 0.0294036 3.93225 0.90371 2.418 2.41795C0.903763 3.93219 0.029457 5.97052 -0.0240695 8.11131C-0.077596 10.2521 0.693752 12.3316 2.13043 13.9196C3.5671 15.5076 5.55919 16.4827 7.69463 16.6431C9.83007 16.8036 11.9455 16.1371 13.6033 14.7816L18.5775 19.7558C18.7347 19.9076 18.9452 19.9916 19.1637 19.9897C19.3822 19.9878 19.5912 19.9001 19.7457 19.7456C19.9002 19.5911 19.9878 19.3821 19.9897 19.1636C19.9916 18.9451 19.9076 18.7346 19.7558 18.5774ZM8.33333 14.9999C7.01478 14.9999 5.72585 14.6089 4.62952 13.8764C3.5332 13.1439 2.67871 12.1027 2.17413 10.8845C1.66955 9.66632 1.53752 8.32588 1.79476 7.03267C2.05199 5.73947 2.68693 4.55158 3.61928 3.61923C4.55163 2.68688 5.73952 2.05194 7.03272 1.7947C8.32593 1.53747 9.66637 1.66949 10.8845 2.17408C12.1027 2.67866 13.1439 3.53314 13.8765 4.62947C14.609 5.7258 15 7.01473 15 8.33327C14.998 10.1008 14.295 11.7953 13.0452 13.0451C11.7954 14.2949 10.1008 14.998 8.33333 14.9999Z" fill="#FFCE33"/>
</g>
<defs>
<clipPath id="clip0_79_5">
<rect width="20" height="20" fill="white"/>
</clipPath>
</defs>
</svg>
