<svg width="125" height="50" viewBox="0 0 125 50" fill="none" xmlns="http://www.w3.org/2000/svg">
<path d="M0 15.7853C0 14.0537 0.895921 12.4454 2.36823 11.5339L18.3682 1.62917C19.9808 0.630935 22.0192 0.630935 23.6318 1.62917L39.6318 11.5339C41.1041 12.4454 42 14.0537 42 15.7853V34.2147C42 35.9463 41.1041 37.5546 39.6318 38.466L23.6318 48.3708C22.0192 49.369 19.9808 49.369 18.3682 48.3708L2.36823 38.466C0.895921 37.5546 0 35.9463 0 34.2147V15.7853Z" fill="#FFCE33"/>
<path d="M21 26.1904C20.7905 26.1779 20.4501 26.1421 20.0933 26.1046C19.6788 26.061 19.242 26.0151 18.9622 26.0005C18.5 25.9764 18.5729 26.7432 18.6109 27.1435C18.6158 27.1942 18.62 27.239 18.6226 27.2756C18.6421 27.5572 18.9835 27.6155 19.3537 27.6788C19.4116 27.6887 19.4701 27.6987 19.5283 27.7097C19.8724 27.7748 20.6528 27.8092 21 27.8182V26.1904Z" fill="white"/>
<path d="M21 31.128C20.3887 31.128 19.483 31.0466 19.3018 31.0195C19.2369 31.0098 19.1515 30.9756 19.052 30.9358C18.8741 30.8646 18.6511 30.7753 18.4188 30.7753C18.0609 30.7753 18.0345 31.093 18.0121 31.3623L18.0112 31.3722C17.9886 31.6435 17.9886 31.8877 18.1244 32.2675C18.2603 32.6473 18.5094 32.8372 18.849 32.9186C19.1207 32.9837 20.3962 33 21 33V31.128Z" fill="white"/>
<path d="M21 26.1904C21.2095 26.1779 21.5498 26.1421 21.9067 26.1046C22.3212 26.061 22.758 26.0151 23.0378 26.0005C23.5 25.9764 23.4271 26.7432 23.3891 27.1435C23.3842 27.1942 23.38 27.239 23.3774 27.2756C23.3578 27.5572 23.0165 27.6155 22.6463 27.6788C22.5884 27.6887 22.5299 27.6987 22.4717 27.7097C22.1276 27.7748 21.3472 27.8092 21 27.8182V26.1904Z" fill="white"/>
<path d="M21 31.128C21.6113 31.128 22.517 31.0466 22.6982 31.0195C22.7631 31.0098 22.8485 30.9756 22.948 30.9358C23.1259 30.8646 23.3489 30.7753 23.5812 30.7753C23.9391 30.7753 23.9655 31.093 23.9879 31.3623L23.9888 31.3722C24.0114 31.6435 24.0114 31.8877 23.8756 32.2675C23.7397 32.6473 23.4906 32.8372 23.151 32.9186C22.8793 32.9837 21.6038 33 21 33V31.128Z" fill="white"/>
<path d="M21 17.4741C20.6958 17.4741 20.5247 17.1314 20.4771 16.96C20.3742 16.6826 20.1207 16.0103 19.9305 15.5403C19.7404 15.0704 19.4711 14.9855 19.3601 15.0018H17.8629C17.7316 15.0018 17.6252 15.1114 17.6252 15.2466C17.6252 15.3818 17.7314 15.4914 17.8627 15.4914H19.3839C19.536 15.4914 19.574 15.5566 19.574 15.5893L20.1682 17.5475C20.0177 17.572 19.6121 17.7531 19.1938 18.2818C18.7763 18.8095 18.7831 19.3684 18.7907 19.9959C18.7926 20.1543 18.7946 20.317 18.7898 20.4848C18.766 21.317 18.1718 21.6597 17.7203 21.8066C17.5646 21.8572 16.9713 22.0096 16.1652 22.2167C14.6325 22.6104 12.3306 23.2017 10.8044 23.6669C8.47533 24.3767 7.04937 25.3313 7.00184 26.3349C6.96381 27.1378 7.52469 27.8444 7.80988 28.0973C8.14261 28.4563 9.38794 29.1743 11.7075 29.1743C14.0271 29.1743 15.4467 28.3094 15.8665 27.877L18.6947 24.9152C18.8294 25.0703 19.1938 25.4097 19.574 25.5272C19.9543 25.6447 20.6831 25.6414 21 25.6251L21 17.4741Z" fill="#1E0E62"/>
<path d="M21 28.6358C20.3583 28.6358 19.5503 28.5134 19.3126 28.4645C19.2635 28.4544 19.2042 28.44 19.1383 28.4242C18.8856 28.3632 18.5358 28.2788 18.2907 28.3176C17.9817 28.3666 17.8629 29.2722 18.053 29.5904C18.2431 29.9086 18.7422 30.0066 19.3126 30.1045C19.7689 30.1828 20.6277 30.2187 21 30.2269V28.6358Z" fill="#1E0E62"/>
<path d="M21 33.2865C20.2633 33.2865 19.0037 33.1152 18.7185 33.0418C18.4333 32.9683 18.362 33.2131 18.5996 33.5313C18.7898 33.7859 19.3126 34.2249 19.5503 34.4125C20.1967 34.9608 20.7623 35 21 35V33.2865Z" fill="#1E0E62"/>
<path d="M21 17.4741C21.3042 17.4741 21.4753 17.1314 21.5229 16.96C21.6258 16.6826 21.8793 16.0103 22.0695 15.5403C22.2596 15.0704 22.5289 14.9855 22.6399 15.0018H24.1371C24.2684 15.0018 24.3748 15.1114 24.3748 15.2466C24.3748 15.3818 24.2686 15.4914 24.1373 15.4914H22.6161C22.464 15.4914 22.426 15.5566 22.426 15.5893L21.8318 17.5475C21.9823 17.572 22.3879 17.7531 22.8062 18.2818C23.2237 18.8095 23.2169 19.3684 23.2093 19.9959C23.2074 20.1543 23.2054 20.317 23.2102 20.4848C23.234 21.317 23.8282 21.6597 24.2797 21.8066C24.4354 21.8572 25.0287 22.0096 25.8348 22.2167C27.3675 22.6104 29.6694 23.2017 31.1956 23.6669C33.5247 24.3767 34.9506 25.3313 34.9982 26.3349C35.0362 27.1378 34.4753 27.8444 34.1901 28.0973C33.8574 28.4563 32.6121 29.1743 30.2925 29.1743C27.9729 29.1743 26.5533 28.3094 26.1334 27.877L23.3053 24.9152C23.1706 25.0703 22.8062 25.4097 22.426 25.5272C22.0457 25.6447 21.3169 25.6414 21 25.6251L21 17.4741Z" fill="#1E0E62"/>
<path d="M21 28.6358C21.6417 28.6358 22.4497 28.5134 22.6874 28.4645C22.7365 28.4544 22.7958 28.44 22.8617 28.4242C23.1144 28.3632 23.4642 28.2788 23.7093 28.3176C24.0183 28.3666 24.1371 29.2722 23.947 29.5904C23.7568 29.9086 23.2578 30.0066 22.6874 30.1045C22.2311 30.1828 21.3723 30.2187 21 30.2269V28.6358Z" fill="#1E0E62"/>
<path d="M21 33.2865C21.7367 33.2865 22.9963 33.1152 23.2815 33.0418C23.5667 32.9683 23.638 33.2131 23.4004 33.5313C23.2102 33.7859 22.6874 34.2249 22.4497 34.4125C21.8033 34.9608 21.2377 35 21 35V33.2865Z" fill="#1E0E62"/>
<path d="M55.2316 31.8055C55.098 31.8055 54.9777 31.7602 54.8708 31.6694C54.7773 31.5657 54.7305 31.449 54.7305 31.3194V22.0639L51.9844 24.1055C51.8909 24.1833 51.7906 24.2222 51.6837 24.2222C51.5368 24.2222 51.4031 24.1444 51.2829 23.9889L50.1002 22.4916C50.0334 22.3879 50 22.2907 50 22.2C50 22.0185 50.0802 21.8824 50.2405 21.7916L54.8508 18.3305C54.9978 18.2398 55.1581 18.1944 55.3318 18.1944H57.8374C57.9844 18.1944 58.1047 18.2398 58.1982 18.3305C58.2918 18.4213 58.3385 18.5379 58.3385 18.6805V31.3194C58.3385 31.449 58.2918 31.5657 58.1982 31.6694C58.1047 31.7602 57.9844 31.8055 57.8374 31.8055H55.2316Z" fill="#1E0E62"/>
<path d="M67.4379 32C65.5938 31.987 64.1974 31.5139 63.2486 30.5805C62.2998 29.6342 61.7854 28.3963 61.7052 26.8666C61.6785 26.1666 61.6651 25.5444 61.6651 25C61.6651 24.4426 61.6785 23.8009 61.7052 23.075C61.7586 22.1028 61.9992 21.2407 62.4268 20.4889C62.8678 19.724 63.5092 19.1213 64.3511 18.6805C65.1929 18.2268 66.2219 18 67.4379 18C69.2419 18.0129 70.6317 18.4861 71.6072 19.4194C72.5827 20.3528 73.1105 21.5713 73.1907 23.075C73.2174 23.8009 73.2308 24.4426 73.2308 25C73.2308 25.5444 73.2174 26.1666 73.1907 26.8666C73.0972 28.3963 72.576 29.6342 71.6272 30.5805C70.6785 31.5139 69.282 31.987 67.4379 32ZM67.4379 29.1805C68.0927 29.1805 68.5805 28.9731 68.9012 28.5583C69.2353 28.1305 69.4157 27.5342 69.4424 26.7694C69.4691 26.3935 69.4825 25.7907 69.4825 24.9611C69.4825 24.1315 69.4691 23.5416 69.4424 23.1916C69.4157 22.4528 69.2419 21.8694 68.9212 21.4416C68.6005 21.0139 68.1061 20.7935 67.4379 20.7805C66.7831 20.7935 66.2887 21.0139 65.9546 21.4416C65.6339 21.8694 65.4602 22.4528 65.4335 23.1916C65.4201 23.5416 65.4134 24.1315 65.4134 24.9611C65.4134 25.7907 65.4201 26.3935 65.4335 26.7694C65.5003 28.3768 66.1684 29.1805 67.4379 29.1805Z" fill="#1E0E62"/>
<path d="M81.062 32C79.2178 31.987 77.8214 31.5139 76.8726 30.5805C75.9239 29.6342 75.4094 28.3963 75.3292 26.8666C75.3025 26.1666 75.2891 25.5444 75.2891 25C75.2891 24.4426 75.3025 23.8009 75.3292 23.075C75.3827 22.1028 75.6232 21.2407 76.0508 20.4889C76.4918 19.724 77.1332 19.1213 77.9751 18.6805C78.817 18.2268 79.8459 18 81.062 18C82.866 18.0129 84.2557 18.4861 85.2312 19.4194C86.2067 20.3528 86.7346 21.5713 86.8147 23.075C86.8415 23.8009 86.8548 24.4426 86.8548 25C86.8548 25.5444 86.8415 26.1666 86.8147 26.8666C86.7212 28.3963 86.2 29.6342 85.2513 30.5805C84.3025 31.5139 82.9061 31.987 81.062 32ZM81.062 29.1805C81.7167 29.1805 82.2045 28.9731 82.5252 28.5583C82.8593 28.1305 83.0397 27.5342 83.0664 26.7694C83.0931 26.3935 83.1065 25.7907 83.1065 24.9611C83.1065 24.1315 83.0931 23.5416 83.0664 23.1916C83.0397 22.4528 82.866 21.8694 82.5452 21.4416C82.2245 21.0139 81.7301 20.7935 81.062 20.7805C80.4072 20.7935 79.9127 21.0139 79.5787 21.4416C79.2579 21.8694 79.0842 22.4528 79.0575 23.1916C79.0441 23.5416 79.0375 24.1315 79.0375 24.9611C79.0375 25.7907 79.0441 26.3935 79.0575 26.7694C79.1243 28.3768 79.7925 29.1805 81.062 29.1805Z" fill="#1E0E62"/>
<path d="M89.7951 31.8055C89.6615 31.8055 89.5412 31.7602 89.4343 31.6694C89.3408 31.5657 89.294 31.449 89.294 31.3194V18.6805C89.294 18.5379 89.3408 18.4213 89.4343 18.3305C89.5412 18.2398 89.6615 18.1944 89.7951 18.1944H92.3207C92.4677 18.1944 92.588 18.2398 92.6815 18.3305C92.7751 18.4213 92.8218 18.5379 92.8218 18.6805V22.9972L96.5301 18.5639C96.6904 18.3176 96.951 18.1944 97.3118 18.1944H100.198C100.318 18.1944 100.419 18.2398 100.499 18.3305C100.579 18.4083 100.619 18.499 100.619 18.6028C100.619 18.6935 100.599 18.7713 100.559 18.8361L95.7483 24.7083L100.92 31.1639C100.973 31.2157 101 31.2935 101 31.3972C101 31.5009 100.96 31.5981 100.88 31.6889C100.8 31.7666 100.699 31.8055 100.579 31.8055H97.5924C97.2717 31.8055 97.0045 31.6759 96.7906 31.4166L92.8218 26.6139V31.3194C92.8218 31.462 92.7751 31.5787 92.6815 31.6694C92.588 31.7602 92.4677 31.8055 92.3207 31.8055H89.7951Z" fill="#1E0E62"/>
<path fill-rule="evenodd" clip-rule="evenodd" d="M106.782 18C105.825 18 104.928 18.4679 104.372 19.2563L101.552 23.2563C100.816 24.2994 100.816 25.7006 101.552 26.7437L104.372 30.7437C104.928 31.5321 105.825 32 106.782 32H122.039C123.674 32 125 30.6568 125 29V21C125 19.3431 123.674 18 122.039 18H106.782ZM109.611 27.4169C110.018 27.8056 110.588 28 111.321 28C112.054 28 112.621 27.8056 113.023 27.4169C113.43 27.0281 113.634 26.4394 113.634 25.6507V22.2112C113.634 22.1493 113.615 22.0986 113.577 22.0591C113.544 22.0197 113.498 22 113.439 22H112.706C112.646 22 112.597 22.0197 112.559 22.0591C112.521 22.0986 112.502 22.1493 112.502 22.2112V25.6507C112.502 26.1014 112.399 26.4422 112.192 26.6732C111.992 26.8986 111.701 27.0112 111.321 27.0112C110.941 27.0112 110.648 26.8986 110.441 26.6732C110.235 26.4422 110.132 26.1014 110.132 25.6507V22.2112C110.132 22.1493 110.113 22.0986 110.075 22.0591C110.042 22.0197 109.996 22 109.937 22H109.195C109.136 22 109.087 22.0197 109.049 22.0591C109.016 22.0986 109 22.1493 109 22.2112V25.6507C109 26.4394 109.204 27.0281 109.611 27.4169ZM114.586 27.8563C114.624 27.8958 114.673 27.9155 114.733 27.9155H118.796C118.856 27.9155 118.905 27.8986 118.943 27.8648C118.981 27.8253 119 27.7746 119 27.7127V27.1211C119 27.0591 118.981 27.0084 118.943 26.969C118.905 26.9296 118.856 26.9098 118.796 26.9098H116.027L118.805 23.0901C118.875 22.9943 118.91 22.8958 118.91 22.7943V22.2112C118.91 22.1493 118.891 22.0986 118.853 22.0591C118.815 22.0197 118.767 22 118.707 22H114.814C114.754 22 114.705 22.0197 114.667 22.0591C114.635 22.0986 114.618 22.1493 114.618 22.2112V22.7943C114.618 22.8507 114.638 22.8986 114.676 22.938C114.714 22.9774 114.76 22.9972 114.814 22.9972H117.493L114.659 26.8C114.654 26.8056 114.632 26.8366 114.594 26.8929C114.556 26.9436 114.537 27.0169 114.537 27.1126V27.7042C114.537 27.7662 114.553 27.8169 114.586 27.8563Z" fill="#FFCE33"/>
</svg>
